<svg xmlns="http://www.w3.org/2000/svg" width="48" height="48" viewBox="0 0 48 48">
  <rect width="48" height="48" rx="11" fill="#14160f"/>
  <g fill="#9ad24f">
    <circle cx="24" cy="24" r="15.5" fill="none" stroke="#9ad24f" stroke-width="2"/>
    <circle cx="24" cy="24" r="2.8"/>
    <ellipse cx="24" cy="13.4" rx="1" ry="2.7" transform="rotate(0 24 24)"/>
    <ellipse cx="24" cy="13.4" rx="1" ry="2.7" transform="rotate(30 24 24)"/>
    <ellipse cx="24" cy="13.4" rx="1" ry="2.7" transform="rotate(60 24 24)"/>
    <ellipse cx="24" cy="13.4" rx="1" ry="2.7" transform="rotate(90 24 24)"/>
    <ellipse cx="24" cy="13.4" rx="1" ry="2.7" transform="rotate(120 24 24)"/>
    <ellipse cx="24" cy="13.4" rx="1" ry="2.7" transform="rotate(150 24 24)"/>
    <ellipse cx="24" cy="13.4" rx="1" ry="2.7" transform="rotate(180 24 24)"/>
    <ellipse cx="24" cy="13.4" rx="1" ry="2.7" transform="rotate(210 24 24)"/>
    <ellipse cx="24" cy="13.4" rx="1" ry="2.7" transform="rotate(240 24 24)"/>
    <ellipse cx="24" cy="13.4" rx="1" ry="2.7" transform="rotate(270 24 24)"/>
    <ellipse cx="24" cy="13.4" rx="1" ry="2.7" transform="rotate(300 24 24)"/>
    <ellipse cx="24" cy="13.4" rx="1" ry="2.7" transform="rotate(330 24 24)"/>
  </g>
</svg>
